HIERARCHY
ROOT Hips
{
    OFFSET 0.000000 0.000000 0.000000
    CHANNELS 6 Xposition Yposition Zposition Zrotation Xrotation Yrotation
    JOINT Spine
    {
        OFFSET -0.000000 0.081343 0.000000
        CHANNELS 3 Zrotation Xrotation Yrotation
        JOINT Spine1
        {
            OFFSET -0.000000 0.243280 0.000000
            CHANNELS 3 Zrotation Xrotation Yrotation
            JOINT Neck
            {
                OFFSET -0.000000 0.242281 0.022026
                CHANNELS 3 Zrotation Xrotation Yrotation
                JOINT Head
                {
                    OFFSET -0.000000 0.149025 -0.021289
                    CHANNELS 3 Zrotation Xrotation Yrotation
                    End Site
                    {
                        OFFSET -0.000000 0.198396 0.000000
                    }
                }
            }
            JOINT LeftShoulder
            {
                OFFSET 0.039707 0.224479 -0.002125
                CHANNELS 3 Zrotation Xrotation Yrotation
                JOINT LeftArm
                {
                    OFFSET 0.116942 0.000000 0.000000
                    CHANNELS 3 Zrotation Xrotation Yrotation
                    JOINT LeftForeArm
                    {
                        OFFSET 0.282002 0.000000 0.000000
                        CHANNELS 3 Zrotation Xrotation Yrotation
                        JOINT LeftHand
                        {
                            OFFSET 0.358743 0.000000 0.000000
                            CHANNELS 3 Zrotation Xrotation Yrotation
                            End Site
                            {
                                OFFSET 0.148797 0.000000 0.000000
                            }
                        }
                    }
                }
            }
            JOINT RightShoulder
            {
                OFFSET -0.039404 0.224479 -0.002125
                CHANNELS 3 Zrotation Xrotation Yrotation
                JOINT RightArm
                {
                    OFFSET -0.116942 0.000000 0.000000
                    CHANNELS 3 Zrotation Xrotation Yrotation
                    JOINT RightForeArm
                    {
                        OFFSET -0.282002 0.000000 0.000000
                        CHANNELS 3 Zrotation Xrotation Yrotation
                        JOINT RightHand
                        {
                            OFFSET -0.358743 0.000000 0.000000
                            CHANNELS 3 Zrotation Xrotation Yrotation
                            End Site
                            {
                                OFFSET -0.148797 0.000000 0.000000
                            }
                        }
                    }
                }
            }
        }
    }
    JOINT LeftUpLeg
    {
        OFFSET 0.099198 0.000000 0.000000
        CHANNELS 3 Zrotation Xrotation Yrotation
        JOINT LeftLeg
        {
            OFFSET -0.000000 -0.332973 0.000000
            CHANNELS 3 Zrotation Xrotation Yrotation
            JOINT LeftFoot
            {
                OFFSET -0.000000 -0.491254 0.000000
                CHANNELS 3 Zrotation Xrotation Yrotation
                JOINT LeftToeBase
                {
                    OFFSET -0.000000 -0.064479 0.148797
                    CHANNELS 3 Zrotation Xrotation Yrotation
                    End Site
                    {
                        OFFSET -0.000000 0.000000 0.039679
                    }
                }
            }
        }
    }
    JOINT RightUpLeg
    {
        OFFSET -0.099198 0.000000 0.000000
        CHANNELS 3 Zrotation Xrotation Yrotation
        JOINT RightLeg
        {
            OFFSET -0.000000 -0.332973 0.000000
            CHANNELS 3 Zrotation Xrotation Yrotation
            JOINT RightFoot
            {
                OFFSET -0.000000 -0.491254 0.000000
                CHANNELS 3 Zrotation Xrotation Yrotation
                JOINT RightToeBase
                {
                    OFFSET -0.000000 -0.064479 0.148797
                    CHANNELS 3 Zrotation Xrotation Yrotation
                    End Site
                    {
                        OFFSET -0.000000 0.000000 0.039679
                    }
                }
            }
        }
    }
}
MOTION
Frames:    14
Frame Time:    0.010000
-0.110271    0.887020    0.165467    4.142910    -3.324743    92.493370    -3.871523    0.131591    -7.386334    3.291288    -0.152632    -2.458683    8.018640    18.284477    2.864869    -3.358795    -6.021826    2.484378    4.483035    11.818857    -0.558226    -27.983862    -8.963666    -15.667223    7.553784    10.111602    -8.824864    2.961239    10.878849    7.593998    -8.455768    0.895707    8.344059    21.399055    -1.044646    1.261429    0.361673    6.995646    -3.766711    20.592178    7.080999    0.407938    5.256663    1.660619    0.131707    -8.065066    17.614416    8.603732    7.644844    -19.142624    30.152111    0.000000    0.000000    0.000000    -4.670175    -11.286879    -4.685150    -3.738654    32.480961    0.307769    15.987394    -1.588319    1.042947    0.000000    0.000000    0.000000    
-0.108887    0.887010    0.161572    4.208758    -3.380367    92.257774    -3.865842    0.171583    -7.595398    3.194496    -0.145731    -2.529122    8.022786    18.332088    2.994943    -3.431356    -5.857411    2.614207    4.432707    11.951363    -0.640925    -28.015303    -9.010171    -15.871217    7.662256    10.332804    -9.053895    3.045270    11.122978    7.388396    -8.676553    0.887478    8.438262    21.773884    -1.365092    0.929056    0.341469    7.133265    -3.649328    20.650431    7.201574    0.318174    5.111491    1.903479    0.667531    -8.037607    17.623272    8.483448    7.615959    -19.228287    29.944983    0.000000    0.000000    0.000000    -4.262283    -11.332126    -4.185845    -3.123901    32.797283    -0.492849    16.380371    -1.790824    0.699264    0.000000    0.000000    0.000000    
-0.107562    0.886990    0.157781    4.258651    -3.426455    92.048416    -3.511114    0.334645    -7.894490    2.476202    -0.443094    -2.626270    8.296802    18.532825    3.151214    -3.622347    -5.760896    2.764485    4.730479    11.730836    -0.579617    -28.016762    -8.316275    -15.798079    7.883307    10.484832    -9.354239    2.641043    11.297474    7.863646    -7.933987    1.313766    7.882867    21.237387    -0.903105    1.774733    0.449609    7.401423    -4.097644    21.534689    7.426769    0.049859    4.977198    2.078860    1.254475    -8.009602    17.706535    8.274622    7.552955    -19.322470    29.752750    0.000000    0.000000    0.000000    -3.864629    -11.401809    -3.808743    -2.599747    33.101608    -1.463734    16.175558    -2.074956    0.203544    0.000000    0.000000    0.000000    
-0.106115    0.886990    0.154070    4.311234    -3.469485    91.908318    -3.505149    0.440018    -8.046315    2.463661    -0.559110    -2.674581    8.195907    18.558435    3.211047    -3.679415    -5.560144    2.821917    4.468856    10.547364    -1.015254    -27.708544    -6.946111    -14.993258    8.051812    10.489136    -9.675513    2.816240    11.346247    7.730398    -8.032398    1.335281    7.653777    21.631012    -0.409695    1.537791    0.025672    6.473330    -3.584986    21.666536    6.437849    -0.190753    4.854659    2.218608    1.732472    -8.007233    17.834282    8.128344    7.502664    -19.393009    29.543360    0.000000    0.000000    0.000000    -3.486096    -11.432823    -3.426739    -2.014268    33.382332    -2.521724    15.857008    -2.552442    -0.819289    0.000000    0.000000    0.000000    
-0.104499    0.886992    0.150441    4.385402    -3.497624    91.774429    -3.533131    0.480090    -8.232443    2.426339    -0.550723    -2.737436    8.192424    18.618223    3.278722    -3.800699    -5.400245    2.879094    4.381955    10.610994    -1.124101    -27.520428    -4.036610    -14.969213    9.295870    9.065745    -9.912612    2.259796    10.019317    8.050148    -8.054646    1.353891    7.560193    21.499315    -1.054909    1.444709    0.406059    7.122386    -3.922393    21.534168    7.075572    -0.321101    4.720172    2.366851    2.170925    -8.007007    17.991734    8.046108    7.403635    -19.466850    29.304649    0.000000    0.000000    0.000000    -3.109733    -11.373646    -3.220883    -1.641205    33.530956    -3.816015    15.748801    -3.025649    -1.401368    0.000000    0.000000    0.000000    
-0.102799    0.887010    0.146897    4.488336    -3.504587    91.659851    -3.562111    0.570916    -8.389665    2.374320    -0.586882    -2.790320    8.181931    18.659943    3.339468    -3.901517    -5.203734    2.932882    4.305467    10.724533    -1.243003    -27.549051    -3.834241    -15.196250    9.340486    8.903468    -10.149167    2.516913    9.896067    7.945362    -8.064651    1.395555    7.440659    21.883057    -0.302072    1.143758    -0.188042    6.725640    -3.669133    21.471687    6.793598    0.392753    4.576365    2.532811    2.595087    -8.005517    18.173342    7.852242    7.279835    -19.517519    29.171263    0.000000    0.000000    0.000000    -2.763495    -11.262204    -3.028427    -1.345029    33.587666    -5.056903    15.832130    -3.394366    -1.791944    0.000000    0.000000    0.000000    
-0.101405    0.886971    0.143433    4.512830    -3.551466    91.689644    -3.514501    0.643775    -8.623467    2.255209    -0.694565    -2.867407    8.141253    18.777609    3.363641    -3.852264    -5.071543    2.979876    4.353788    11.784317    -1.200884    -27.984806    -7.247026    -16.353161    8.306087    10.519765    -10.331193    2.995394    11.455121    7.661678    -8.010995    1.682555    7.522875    21.641556    -1.271883    0.841456    0.383546    6.630044    -3.541797    20.832445    6.769786    0.700977    4.495968    2.510632    2.667492    -8.088995    18.498537    7.833359    7.185800    -19.686974    29.033419    0.000000    0.000000    0.000000    -2.399696    -11.209911    -3.009608    -1.185407    33.571789    -6.185582    15.540133    -3.876856    -1.671404    0.000000    0.000000    0.000000    
-0.099854    0.887014    0.140161    4.579690    -3.579411    91.669861    -3.500971    0.741825    -8.781942    2.147772    -0.787366    -2.920129    8.237037    18.898064    3.362708    -3.992242    -4.984155    2.967665    4.360138    11.851618    -1.406459    -28.044815    -6.966052    -16.499409    8.467860    10.575732    -10.568783    2.549905    11.519278    7.927467    -7.965558    1.716086    7.392178    22.057673    -0.383129    0.506505    -0.319202    6.347224    -3.511892    21.546873    6.411270    0.390132    4.406215    2.579162    2.797911    -8.144055    18.713043    7.669937    7.073778    -19.742460    29.014912    0.000000    0.000000    0.000000    -1.978277    -11.120577    -3.065252    -1.291884    33.480469    -7.068185    15.519455    -4.037745    -1.279265    0.000000    0.000000    0.000000    
-0.098123    0.887019    0.136686    4.714058    -3.601296    91.649506    -3.424557    0.875496    -8.920985    2.003240    -0.816528    -2.968119    8.253863    18.916973    3.375804    -4.068137    -4.865995    2.973286    4.400980    12.892090    -1.349630    -28.278809    -7.575555    -17.455132    8.545788    10.575134    -10.725121    2.795304    11.546192    7.602549    -7.938359    1.659546    7.281075    21.922436    -0.868934    0.332606    0.139544    6.235661    -3.591806    20.785257    6.364256    0.681610    4.264959    2.715887    2.926504    -8.168421    18.949617    7.545842    6.951291    -19.834431    29.027370    0.000000    0.000000    0.000000    -1.588399    -10.948679    -2.997839    -1.307566    33.386543    -7.645263    14.596658    -4.420193    -0.913557    0.000000    0.000000    0.000000    
-0.096193    0.887063    0.133786    4.811090    -3.581741    91.816261    -3.484132    0.903251    -9.180738    1.898802    -0.737400    -3.057185    8.386506    18.972269    3.372735    -4.242260    -4.800701    2.948209    4.382961    12.599259    -1.590290    -28.280888    -6.717693    -17.432299    8.853588    10.287775    -10.853054    2.913188    11.299129    7.337753    -7.872623    1.633621    7.158875    22.041149    -0.764174    0.088563    0.061606    6.587839    -3.714764    21.707373    6.677842    0.462235    4.177862    2.786942    2.951431    -8.215215    19.214993    7.158089    6.586159    -20.137518    29.069962    0.000000    0.000000    0.000000    -1.154079    -10.743476    -3.051811    -1.482526    33.185719    -7.737721    14.163786    -4.917162    -0.945473    0.000000    0.000000    0.000000    
-0.094307    0.887156    0.130573    4.901502    -3.583559    91.931435    -3.404444    0.939250    -9.366357    1.655775    -0.705445    -3.121228    8.562592    19.057795    3.344669    -4.393507    -4.787949    2.903309    4.461003    12.691190    -1.817154    -28.347843    -6.364090    -17.593798    9.000413    10.105669    -11.093390    2.896810    11.147366    7.268090    -7.761036    1.604269    7.037629    21.586483    -2.539810    -0.246997    1.034093    7.075625    -3.591160    20.812634    7.168231    0.331716    4.030499    2.955376    2.737845    -8.272357    19.272171    7.311723    6.410670    -20.193657    28.904482    0.000000    0.000000    0.000000    -0.733013    -10.630663    -3.230463    -1.769142    33.018288    -7.221822    14.426776    -5.058138    -1.401818    0.000000    0.000000    0.000000    
-0.092553    0.887291    0.127546    4.980029    -3.590029    92.024918    -3.368853    0.972590    -9.527314    1.503709    -0.644503    -3.176847    8.595464    19.073507    3.341692    -4.341524    -4.732314    2.913978    4.457568    12.714772    -2.022534    -28.307966    -6.011104    -17.724607    9.046763    9.991568    -11.318153    2.879988    11.053455    7.218424    -7.716773    1.591852    6.884481    21.725702    -2.436713    -0.449578    0.951891    6.897911    -3.639957    20.774988    6.907403    -0.112795    3.886941    3.088609    2.795925    -8.216345    19.390759    7.326957    6.157659    -20.237185    28.598772    0.000000    0.000000    0.000000    -0.239657    -10.554626    -3.141021    -2.028319    32.834663    -6.772573    14.224798    -5.405711    -1.622437    0.000000    0.000000    0.000000    
-0.091074    0.887463    0.124739    5.015253    -3.594360    92.086655    -3.365547    1.003477    -9.656042    1.379282    -0.612629    -3.221148    8.723902    19.155903    3.302620    -4.445917    -4.806658    2.861784    4.424744    12.478821    -2.295786    -28.238005    -5.450469    -17.642126    9.130950    9.838287    -11.565742    2.920212    10.928972    7.136797    -7.644110    1.549394    6.815104    23.235405    1.990100    -0.772137    -1.412952    5.359344    -3.800410    22.592567    5.495326    0.918457    3.767359    3.179800    2.870584    -8.181458    19.493448    7.202343    5.944326    -20.254168    28.427036    0.000000    0.000000    0.000000    0.259495    -10.582471    -2.722532    -2.100023    32.682629    -6.223642    13.915040    -5.750314    -2.104548    0.000000    0.000000    0.000000    
-0.089248    0.887609    0.121777    5.071662    -3.581010    92.199478    -3.327866    0.989501    -9.816397    1.196828    -0.520094    -3.276285    8.820907    19.230288    3.299390    -4.469253    -4.875223    2.860527    4.443875    12.707576    -2.473678    -28.243031    -5.205794    -17.906525    9.304886    9.760974    -11.708223    2.973767    10.884423    7.148120    -7.597984    1.548805    6.750934    23.138269    1.457750    -0.924955    -0.902947    5.141101    -3.952034    21.870235    5.328859    1.137086    3.574598    3.397389    2.795539    -8.104577    19.417564    7.651522    5.576797    -20.303450    27.752420    0.000000    0.000000    0.000000    0.693141    -10.548772    -2.479187    -2.221976    32.485710    -5.625172    12.972672    -6.323939    -2.059250    0.000000    0.000000    0.000000    
